<svg width="50" height="50" viewBox="0 0 50 50" fill="none" xmlns="http://www.w3.org/2000/svg">
<path fill-rule="evenodd" clip-rule="evenodd" d="M20.36 15.6341C20.1599 15.4333 19.9215 15.2738 19.6587 15.1649C19.3958 15.0561 19.1138 15 18.8289 15C18.5441 15 18.2621 15.0561 17.9992 15.1649C17.7364 15.2738 17.498 15.4333 17.2979 15.6341L16.9972 15.9323L16.6962 15.6341C16.4951 15.4349 16.2565 15.2769 15.9938 15.1691C15.7311 15.0613 15.4495 15.0058 15.1652 15.0058C14.5909 15.0058 14.0402 15.2318 13.6342 15.6341C13.2281 16.0364 13 16.582 13 17.151C13 17.7199 13.2281 18.2655 13.6342 18.6678L16.9974 22L20.36 18.6678C20.5627 18.4696 20.7237 18.2334 20.8336 17.973C20.9434 17.7126 21 17.4332 21 17.151C21 16.8687 20.9434 16.5893 20.8336 16.3289C20.7237 16.0685 20.5627 15.8324 20.36 15.6341Z" fill="#4049A2"/>
<path fill-rule="evenodd" clip-rule="evenodd" d="M35.36 15.6341C35.1599 15.4333 34.9215 15.2738 34.6587 15.1649C34.3958 15.0561 34.1138 15 33.8289 15C33.5441 15 33.2621 15.0561 32.9992 15.1649C32.7364 15.2738 32.498 15.4333 32.2979 15.6341L31.9972 15.9323L31.6962 15.6341C31.4951 15.4349 31.2565 15.2769 30.9938 15.1691C30.7311 15.0613 30.4495 15.0058 30.1652 15.0058C29.5909 15.0058 29.0402 15.2318 28.6342 15.6341C28.2281 16.0364 28 16.582 28 17.151C28 17.7199 28.2281 18.2655 28.6342 18.6678L31.9974 22L35.36 18.6678C35.5627 18.4696 35.7237 18.2334 35.8336 17.973C35.9434 17.7126 36 17.4332 36 17.151C36 16.8687 35.9434 16.5893 35.8336 16.3289C35.7237 16.0685 35.5627 15.8324 35.36 15.6341Z" fill="#4049A2"/>
<path d="M25 0C20.0555 0 15.222 1.46623 11.1108 4.21326C6.99952 6.9603 3.79521 10.8648 1.90302 15.4329C0.0108301 20.0011 -0.48425 25.0277 0.48038 29.8773C1.44501 34.7268 3.82603 39.1813 7.32234 42.6777C10.8187 46.174 15.2732 48.555 20.1227 49.5196C24.9723 50.4842 29.9989 49.9892 34.5671 48.097C39.1352 46.2048 43.0397 43.0005 45.7867 38.8892C48.5338 34.778 50 29.9445 50 25C49.9925 18.3719 47.3562 12.0174 42.6694 7.33061C37.9826 2.64382 31.6281 0.00749624 25 0ZM25 47.0022C20.648 47.0022 16.3936 45.7116 12.775 43.2938C9.15644 40.8759 6.33609 37.4393 4.67064 33.4185C3.00518 29.3977 2.56942 24.9734 3.41846 20.705C4.2675 16.4365 6.36321 12.5158 9.44058 9.43839C12.5179 6.36103 16.4387 4.26532 20.7072 3.41627C24.9756 2.56723 29.3999 3.00299 33.4207 4.66845C37.4415 6.33391 40.8781 9.15425 43.296 12.7729C45.7138 16.3914 47.0044 20.6458 47.0044 24.9978C46.9986 30.832 44.6784 36.4255 40.5531 40.5509C36.4277 44.6762 30.8342 46.9964 25 47.0022Z" fill="#4049A2"/>
<path d="M35.5164 29.7466C35.2029 29.2677 34.7839 29 34.3478 29L15.6522 29C15.2161 29 14.7971 29.2677 14.4836 29.7466C14.3307 29.9784 14.209 30.2566 14.1259 30.5645C14.0428 30.8725 14 31.2037 14 31.5385C14 31.8732 14.0428 32.2045 14.1259 32.5124C14.209 32.8204 14.3307 33.0985 14.4836 33.3302C17.3148 37.6108 21.0818 40 25 40C28.9182 40 32.6852 37.6108 35.5164 33.3302C35.6693 33.0985 35.791 32.8204 35.8741 32.5124C35.9572 32.2045 36 31.8732 36 31.5385C36 31.2037 35.9572 30.8725 35.8741 30.5645C35.791 30.2566 35.6693 29.9784 35.5164 29.7466Z" fill="#4049A2"/>
</svg>
