<svg width="50" height="50" viewBox="0 0 50 50" fill="none" xmlns="http://www.w3.org/2000/svg">
<path d="M25 0C20.0555 0 15.222 1.46623 11.1108 4.21326C6.99952 6.9603 3.79521 10.8648 1.90302 15.4329C0.0108301 20.0011 -0.48425 25.0277 0.48038 29.8772C1.44501 34.7268 3.82603 39.1813 7.32234 42.6777C10.8187 46.174 15.2732 48.555 20.1227 49.5196C24.9723 50.4842 29.9989 49.9892 34.5671 48.097C39.1352 46.2048 43.0397 43.0005 45.7867 38.8892C48.5338 34.778 50 29.9445 50 25C49.9925 18.3719 47.3562 12.0174 42.6694 7.33061C37.9826 2.64382 31.6281 0.00749624 25 0ZM25 47.0022C20.648 47.0022 16.3936 45.7116 12.775 43.2938C9.15644 40.8759 6.33609 37.4393 4.67064 33.4185C3.00518 29.3977 2.56942 24.9734 3.41846 20.705C4.2675 16.4365 6.36321 12.5158 9.44058 9.43839C12.5179 6.36103 16.4387 4.26531 20.7072 3.41627C24.9756 2.56723 29.3999 3.00299 33.4207 4.66845C37.4415 6.33391 40.8781 9.15425 43.296 12.7728C45.7138 16.3914 47.0044 20.6458 47.0044 24.9978C46.9986 30.832 44.6784 36.4255 40.5531 40.5509C36.4277 44.6762 30.8342 46.9964 25 47.0022Z" fill="#469052"/>
<path d="M16 26L21.5 32L37.5 17" stroke="#469052" stroke-width="3" stroke-linecap="round"/>
</svg>
