<svg width="50" height="50" viewBox="0 0 50 50" fill="none" xmlns="http://www.w3.org/2000/svg">
<path d="M25 0C20.0555 0 15.222 1.46623 11.1108 4.21326C6.99952 6.9603 3.79521 10.8648 1.90302 15.4329C0.0108301 20.0011 -0.48425 25.0277 0.48038 29.8772C1.44501 34.7268 3.82603 39.1813 7.32234 42.6777C10.8187 46.174 15.2732 48.555 20.1227 49.5196C24.9723 50.4842 29.9989 49.9892 34.5671 48.097C39.1352 46.2048 43.0397 43.0005 45.7867 38.8892C48.5338 34.778 50 29.9445 50 25C49.9925 18.3719 47.3562 12.0174 42.6694 7.33061C37.9826 2.64382 31.6281 0.00749624 25 0ZM25 47.0022C20.648 47.0022 16.3936 45.7116 12.775 43.2938C9.15644 40.8759 6.33609 37.4393 4.67064 33.4185C3.00518 29.3977 2.56942 24.9734 3.41846 20.705C4.2675 16.4365 6.36321 12.5158 9.44058 9.43839C12.5179 6.36103 16.4387 4.26531 20.7072 3.41627C24.9756 2.56723 29.3999 3.00299 33.4207 4.66845C37.4415 6.33391 40.8781 9.15425 43.296 12.7728C45.7138 16.3914 47.0044 20.6458 47.0044 24.9978C46.9986 30.832 44.6784 36.4255 40.5531 40.5509C36.4277 44.6762 30.8342 46.9964 25 47.0022Z" fill="#EE863B"/>
<path d="M34.4452 20.3136C34.3577 20.2176 34.2516 20.1403 34.1334 20.0864C34.0152 20.0326 33.8872 20.0033 33.7574 20.0003C33.6275 19.9973 33.4983 20.0206 33.3778 20.0689C33.2572 20.1173 33.1476 20.1895 33.0558 20.2814C32.9639 20.3733 32.8916 20.4828 32.8433 20.6034C32.795 20.724 32.7716 20.8531 32.7746 20.983C32.7776 21.1129 32.8069 21.2408 32.8608 21.3591C32.9146 21.4773 32.9919 21.5834 33.0879 21.6709L35.2905 23.8735H26.0814C25.8266 23.8735 25.5822 23.9747 25.402 24.1549C25.2218 24.3351 25.1206 24.5795 25.1206 24.8343C25.1206 25.0891 25.2218 25.3335 25.402 25.5137C25.5822 25.6938 25.8266 25.7951 26.0814 25.7951H35.2905L33.0879 27.9977C32.9919 28.0852 32.9146 28.1913 32.8608 28.3095C32.8069 28.4277 32.7776 28.5556 32.7746 28.6855C32.7716 28.8154 32.795 28.9445 32.8433 29.0651C32.8916 29.1857 32.9639 29.2953 33.0558 29.3871C33.1476 29.479 33.2572 29.5513 33.3778 29.5996C33.4983 29.6479 33.6275 29.6713 33.7574 29.6683C33.8872 29.6653 34.0152 29.636 34.1334 29.5821C34.2516 29.5283 34.3577 29.451 34.4452 29.355L38.2884 25.5118C38.3776 25.4228 38.4484 25.317 38.4967 25.2006C38.5451 25.0841 38.5699 24.9593 38.5699 24.8332C38.5699 24.7071 38.5451 24.5823 38.4967 24.4658C38.4484 24.3494 38.3776 24.2436 38.2884 24.1545L34.4452 20.3136Z" fill="#EE863B"/>
<path d="M24.4886 23.8106H15.2794L17.482 21.608C17.6485 21.4254 17.7382 21.1856 17.7325 20.9385C17.7267 20.6915 17.626 20.4561 17.4513 20.2814C17.2766 20.1067 17.0412 20.006 16.7942 20.0003C16.5471 19.9945 16.3074 20.0842 16.1247 20.2507L12.2816 24.0938C12.1923 24.1829 12.1215 24.2887 12.0732 24.4051C12.0249 24.5216 12 24.6464 12 24.7725C12 24.8986 12.0249 25.0234 12.0732 25.1399C12.1215 25.2563 12.1923 25.3621 12.2816 25.4511L16.1247 29.2943C16.3074 29.4607 16.5471 29.5504 16.7942 29.5447C17.0412 29.539 17.2766 29.4383 17.4513 29.2636C17.626 29.0888 17.7267 28.8535 17.7325 28.6064C17.7382 28.3594 17.6485 28.1196 17.482 27.937L15.2794 25.7344H30.5674C31.099 25.7344 29.1377 24.3422 29.1377 23.8106C35.1164 23.5274 25.0201 23.8106 24.4886 23.8106Z" fill="#EE863B"/>
</svg>
