<svg width="50" height="50" viewBox="0 0 50 50" fill="none" xmlns="http://www.w3.org/2000/svg">
<path d="M46.7141 23.9923H34.389L37.3369 21.6847C37.5597 21.4933 37.6797 21.2421 37.6721 20.9833C37.6644 20.7245 37.5297 20.4779 37.2958 20.2948C37.0619 20.1118 36.7469 20.0063 36.4163 20.0003C36.0857 19.9943 35.7648 20.0882 35.5203 20.2626L30.3769 24.289C30.2574 24.3823 30.1626 24.4931 30.098 24.6151C30.0333 24.7371 30 24.8679 30 25C30 25.1321 30.0333 25.2629 30.098 25.3849C30.1626 25.5069 30.2574 25.6177 30.3769 25.711L35.5203 29.7374C35.7648 29.9118 36.0857 30.0057 36.4163 29.9997C36.7469 29.9937 37.0619 29.8882 37.2958 29.7052C37.5297 29.5221 37.6644 29.2755 37.6721 29.0167C37.6797 28.7579 37.5597 28.5067 37.3369 28.3154L34.389 26.0077H46.7141C47.0552 26.0077 47.3822 25.9017 47.6234 25.7129C47.8645 25.5241 48 25.2681 48 25.0011C48 24.7342 47.8645 24.4781 47.6234 24.2894C47.3822 24.1006 47.0552 23.9946 46.7141 23.9946V23.9923Z" fill="#EE863B"/>
<path d="M3.28588 26.0077L15.611 26.0077L12.6631 28.3153C12.4403 28.5067 12.3203 28.7579 12.3279 29.0167C12.3356 29.2755 12.4703 29.5221 12.7042 29.7052C12.9381 29.8882 13.2531 29.9937 13.5837 29.9997C13.9143 30.0057 14.2352 29.9118 14.4797 29.7374L19.6231 25.711C19.7426 25.6177 19.8374 25.5069 19.902 25.3849C19.9667 25.2629 20 25.1321 20 25C20 24.8679 19.9667 24.7371 19.902 24.6151C19.8374 24.4931 19.7426 24.3823 19.6231 24.289L14.4797 20.2626C14.2352 20.0882 13.9143 19.9943 13.5837 20.0003C13.2531 20.0063 12.9381 20.1118 12.7042 20.2948C12.4703 20.4779 12.3356 20.7245 12.3279 20.9833C12.3203 21.2421 12.4403 21.4933 12.6631 21.6846L15.611 23.9923L3.28588 23.9923C2.94484 23.9923 2.61777 24.0983 2.37662 24.2871C2.13547 24.4759 2 24.7319 2 24.9989C2 25.2658 2.13547 25.5219 2.37662 25.7106C2.61777 25.8994 2.94484 26.0054 3.28588 26.0054L3.28588 26.0077Z" fill="#EE863B"/>
<path d="M25 0C20.0555 0 15.222 1.46623 11.1108 4.21326C6.99952 6.9603 3.79521 10.8648 1.90302 15.4329C0.0108301 20.0011 -0.48425 25.0277 0.48038 29.8772C1.44501 34.7268 3.82603 39.1813 7.32234 42.6777C10.8187 46.174 15.2732 48.555 20.1227 49.5196C24.9723 50.4842 29.9989 49.9892 34.5671 48.097C39.1352 46.2048 43.0397 43.0005 45.7867 38.8892C48.5338 34.778 50 29.9445 50 25C49.9925 18.3719 47.3562 12.0174 42.6694 7.33061C37.9826 2.64382 31.6281 0.00749624 25 0ZM25 47.0022C20.648 47.0022 16.3936 45.7116 12.775 43.2938C9.15644 40.8759 6.33609 37.4393 4.67064 33.4185C3.00518 29.3977 2.56942 24.9734 3.41846 20.705C4.2675 16.4365 6.36321 12.5158 9.44058 9.43839C12.5179 6.36103 16.4387 4.26531 20.7072 3.41627C24.9756 2.56723 29.3999 3.00299 33.4207 4.66845C37.4415 6.33391 40.8781 9.15425 43.296 12.7728C45.7138 16.3914 47.0044 20.6458 47.0044 24.9978C46.9986 30.832 44.6784 36.4255 40.5531 40.5509C36.4277 44.6762 30.8342 46.9964 25 47.0022Z" fill="#EE863B"/>
</svg>
