<svg width="50" height="50" viewBox="0 0 50 50" fill="none" xmlns="http://www.w3.org/2000/svg">
<path d="M25 0C20.0555 0 15.222 1.46623 11.1108 4.21326C6.99952 6.9603 3.79521 10.8648 1.90302 15.4329C0.0108301 20.0011 -0.48425 25.0277 0.48038 29.8773C1.44501 34.7268 3.82603 39.1813 7.32234 42.6777C10.8187 46.174 15.2732 48.555 20.1227 49.5196C24.9723 50.4842 29.9989 49.9892 34.5671 48.097C39.1352 46.2048 43.0397 43.0005 45.7867 38.8892C48.5338 34.778 50 29.9445 50 25C49.9925 18.3719 47.3562 12.0174 42.6694 7.33061C37.9826 2.64382 31.6281 0.00749624 25 0ZM25 47.0022C20.648 47.0022 16.3936 45.7116 12.775 43.2938C9.15644 40.8759 6.33609 37.4393 4.67064 33.4185C3.00518 29.3977 2.56942 24.9734 3.41846 20.705C4.2675 16.4365 6.36321 12.5158 9.44058 9.43839C12.5179 6.36103 16.4387 4.26532 20.7072 3.41627C24.9756 2.56723 29.3999 3.00299 33.4207 4.66845C37.4415 6.33391 40.8781 9.15425 43.296 12.7729C45.7138 16.3914 47.0044 20.6458 47.0044 24.9978C46.9986 30.832 44.6784 36.4255 40.5531 40.5509C36.4277 44.6762 30.8342 46.9964 25 47.0022Z" fill="#FF0000"/>
<path d="M33.4771 16.817C32.8516 16.8174 32.2403 17.0032 31.7205 17.351C31.2006 17.6987 30.7954 18.1929 30.5563 18.7708C30.3171 19.3488 30.2547 19.9846 30.3768 20.598C30.499 21.2114 30.8002 21.775 31.2425 22.2172C31.6848 22.6595 32.2482 22.9608 32.8616 23.0829C33.4751 23.205 34.111 23.1425 34.6889 22.9034C35.2669 22.6642 35.7609 22.2591 36.1087 21.7392C36.4564 21.2193 36.6423 20.608 36.6427 19.9825C36.643 19.5667 36.5613 19.155 36.4023 18.7708C36.2434 18.3866 36.0102 18.0375 35.7162 17.7435C35.4222 17.4495 35.0731 17.2164 34.6889 17.0574C34.3047 16.8984 33.8929 16.8167 33.4771 16.817Z" fill="#FF0000"/>
<path d="M19.6842 19.9826C19.6842 19.357 19.4987 18.7453 19.1511 18.2251C18.8035 17.7049 18.3094 17.2995 17.7314 17.0601C17.1534 16.8206 16.5173 16.7579 15.9037 16.88C15.29 17.0021 14.7263 17.3033 14.2839 17.7457C13.8415 18.1881 13.5403 18.7519 13.4182 19.3655C13.2961 19.9791 13.3588 20.6152 13.5982 21.1932C13.8377 21.7713 14.2431 22.2653 14.7633 22.6129C15.2835 22.9605 15.8952 23.146 16.5208 23.146C17.3598 23.146 18.1644 22.8128 18.7577 22.2195C19.3509 21.6263 19.6842 20.8216 19.6842 19.9826Z" fill="#FF0000"/>
<line x1="15.5" y1="33.5" x2="34.5" y2="33.5" stroke="#FF0000" stroke-width="3" stroke-linecap="round"/>
<line x1="12.7897" y1="12.8611" x2="18.8611" y2="14.2103" stroke="#FF0000" stroke-width="3" stroke-linecap="round"/>
<line x1="29.5" y1="17.5" x2="37.5" y2="17.5" stroke="#FF0000" stroke-width="3" stroke-linecap="round"/>
<path d="M24.5 34.5H31.5V37C31.5 38.933 29.933 40.5 28 40.5C26.067 40.5 24.5 38.933 24.5 37V34.5Z" stroke="#FF0000" stroke-width="3"/>
</svg>
